# xmcd
#
# Track frame offsets: 
#        150
#        13647
#        26639
#        39300
#        53307
#        64737
#        75950
#        88417
#        100594
#        112885
#        123659
#        135174
#        146395
#        156521
#        167679
#        180015
#        191032
#        201036
#        213873
#        225972
#        235980
#        247804
#        258196
#        270193
#        282450
#        293698
#        305538
#        317848
#        329933
#        343726
#
# Disc length: 4743 seconds
#
# Revision: 0
# Processed by: cddbd v1.5.1PL2 Copyright (c) Steve Scherf et al.
# Submitted via: ExactAudioCopy v0.95b3
#
DISCID=9212851e
DTITLE=The Drifters - The Definitive Drifters Collection - Disc 1
DYEAR=2003
DGENRE=Soul
TTITLE0=MONEY HONEY
TTITLE1=LET THE BOOGIE WOOGIE ROLL
TTITLE2=THE WAY I FEEL
TTITLE3=LUCILLE
TTITLE4=SUCH A NIGHT
TTITLE5=HONEY LOVE
TTITLE6=BIP BAM
TTITLE7=WHITE CHRISTMAS
TTITLE8=ADORABLE
TTITLE9=RUBY BABY
TTITLE10=FOOLS FALL IN LOVE
TTITLE11=DRIP DROP
TTITLE12=THERE GOES MY BABY
TTITLE13=DANCE WITH ME
TTITLE14=THIS MAGIC MOMENT
TTITLE15=(IF YOU CRY) TRUE LOVE, TRUE LOVE
TTITLE16=BALTIMORE
TTITLE17=LONELY WINDS
TTITLE18=SAVE THE LAST DANCE FOR ME
TTITLE19=I COUNT THE TEARS
TTITLE20=SOME KIND OF WONDERFUL
TTITLE21=PLEASE STAY
TTITLE22=SWEETS FOR MY SWEETS
TTITLE23=ROOM FULL OF TEARS
TTITLE24=WHEN MY LITTLE GIRL IS SMILING
TTITLE25=MEXICAN DIVORCE
TTITLE26=STRANGER ON THE SHORE
TTITLE27=UP ON THE ROOF
TTITLE28=ON BROADWAY
TTITLE29=LET THE MUSIC PLAY
EXTD=
EXTT0=
EXTT1=
EXTT2=
EXTT3=
EXTT4=
EXTT5=
EXTT6=
EXTT7=
EXTT8=
EXTT9=
EXTT10=
EXTT11=
EXTT12=
EXTT13=
EXTT14=
EXTT15=
EXTT16=
EXTT17=
EXTT18=
EXTT19=
EXTT20=
EXTT21=
EXTT22=
EXTT23=
EXTT24=
EXTT25=
EXTT26=
EXTT27=
EXTT28=
EXTT29=
PLAYORDER=
